<?xml version="1.0" encoding="UTF-8" standalone="no"?>
<svg width="46px" height="46px" viewBox="0 0 46 46" version="1.1" xmlns="http://www.w3.org/2000/svg" xmlns:xlink="http://www.w3.org/1999/xlink" xmlns:sketch="http://www.bohemiancoding.com/sketch/ns">
    <!-- Generator: Sketch 3.1.1 (8761) - http://www.bohemiancoding.com/sketch -->
    <title>1460693498_expand</title>
    <desc>Created with Sketch.</desc>
    <defs></defs>
    <g id="Page-1" stroke="none" stroke-width="1" fill="none" fill-rule="evenodd" sketch:type="MSPage">
        <g id="1460693498_expand" sketch:type="MSLayerGroup" fill="#231F20">
            <g id="Group" sketch:type="MSShapeGroup">
                <path d="M30.4565625,19.1517187 L33.564375,16.0439063 L36.6721875,12.9360937 L39.78,9.82828125 L39.9164063,9.69328125 L44.8664062,14.6432812 L45.298125,0.42609375 L31.0795312,0.8578125 L36.0309375,5.8078125 L35.8945312,5.94421875 L32.7867187,9.05203125 L29.6789063,12.1584375 L26.5725,15.26625 L26.1042187,15.7359375 L29.986875,19.62 L30.4565625,19.1517187 Z" id="Shape"></path>
                <path d="M16.306875,12.1584375 L13.1990625,9.05203125 L10.09125,5.94421875 L9.95625,5.8078125 L14.90625,0.8578125 L0.68765625,0.42609375 L1.119375,14.6432812 L6.07078125,9.69328125 L6.2071875,9.82828125 L9.31359375,12.9360937 L12.4214062,16.0439063 L15.5278125,19.1517187 L15.9989062,19.62 L19.8829687,15.7359375 L19.4146875,15.26625 L16.306875,12.1584375 Z" id="Shape"></path>
                <path d="M39.9164063,35.769375 L39.78,35.634375 L36.6721875,32.5265625 L33.564375,29.41875 L30.4565625,26.3095312 L29.986875,25.84125 L26.1042187,29.7267187 L26.5725,30.195 L29.6789063,33.3028125 L32.7867187,36.410625 L35.8945312,39.5184375 L36.0309375,39.6534375 L31.0795312,44.6048438 L45.298125,45.0351562 L44.8664062,30.819375 L39.9164063,35.769375 Z" id="Shape"></path>
                <path d="M15.5278125,26.3095312 L12.4214062,29.41875 L9.31359375,32.5265625 L6.2071875,35.634375 L6.07078125,35.7707812 L1.119375,30.819375 L0.68765625,45.0351562 L14.90625,44.6048438 L9.95484375,39.6534375 L10.09125,39.5184375 L13.1990625,36.410625 L16.306875,33.3028125 L19.4146875,30.195 L19.8829687,29.7267187 L15.9989062,25.84125 L15.5278125,26.3095312 Z" id="Shape"></path>
            </g>
        </g>
    </g>
</svg>