<?xml version="1.0" encoding="UTF-8" standalone="no"?>
<svg width="45px" height="45px" viewBox="0 0 45 45" version="1.1" xmlns="http://www.w3.org/2000/svg" xmlns:xlink="http://www.w3.org/1999/xlink" xmlns:sketch="http://www.bohemiancoding.com/sketch/ns">
    <!-- Generator: Sketch 3.1.1 (8761) - http://www.bohemiancoding.com/sketch -->
    <title>search_icon</title>
    <desc>Created with Sketch.</desc>
    <defs></defs>
    <g id="Page-1" stroke="none" stroke-width="1" fill="none" fill-rule="evenodd" sketch:type="MSPage">
        <g id="search_icon" sketch:type="MSLayerGroup" fill="#676767">
            <g id="search" sketch:type="MSShapeGroup">
                <path d="M32.1428571,28.2857143 L30.0857143,28.2857143 L29.3143866,27.5142857 C31.8858151,24.6857143 33.4286723,20.8285714 33.4286723,16.7142857 C33.4285714,7.45714286 25.9714286,0 16.7142857,0 C7.45714286,0 0,7.45714286 0,16.7142857 C0,25.9714286 7.45714286,33.4285714 16.7142857,33.4285714 C20.8285714,33.4285714 24.6857143,31.8857143 27.5142857,29.3142857 L28.2857143,30.0856134 L28.2857143,32.1427563 L41.1428571,45 L45,41.1428571 L32.1428571,28.2857143 L32.1428571,28.2857143 Z M16.7142857,28.2857143 C10.2857143,28.2857143 5.14285714,23.1428571 5.14285714,16.7142857 C5.14285714,10.2857143 10.2857143,5.14285714 16.7142857,5.14285714 C23.1428571,5.14285714 28.2857143,10.2857143 28.2857143,16.7142857 C28.2857143,23.1428571 23.1428571,28.2857143 16.7142857,28.2857143 L16.7142857,28.2857143 Z" id="Shape"></path>
            </g>
        </g>
    </g>
</svg>