<?xml version="1.0" encoding="UTF-8" standalone="no"?>
<svg width="46px" height="45px" viewBox="0 0 46 45" version="1.1" xmlns="http://www.w3.org/2000/svg" xmlns:xlink="http://www.w3.org/1999/xlink" xmlns:sketch="http://www.bohemiancoding.com/sketch/ns">
    <!-- Generator: Sketch 3.1.1 (8761) - http://www.bohemiancoding.com/sketch -->
    <title>1460693498_expand</title>
    <desc>Created with Sketch.</desc>
    <defs></defs>
    <g id="Page-1" stroke="none" stroke-width="1" fill="none" fill-rule="evenodd" sketch:type="MSPage">
        <g id="1460693498_expand" sketch:type="MSLayerGroup" transform="translate(1.000000, 0.000000)" fill="#231F20">
            <g id="Group" sketch:type="MSShapeGroup">
                <path d="M29.4565625,19.1517187 L32.564375,16.0439063 L35.6721875,12.9360937 L38.78,9.82828125 L38.9164063,9.69328125 L43.8664062,14.6432812 L44.298125,0.42609375 L30.0795312,0.8578125 L35.0309375,5.8078125 L34.8945312,5.94421875 L31.7867188,9.05203125 L28.6789063,12.1584375 L25.5725,15.26625 L25.1042187,15.7359375 L28.986875,19.62 L29.4565625,19.1517187 Z" id="Shape" transform="translate(34.701172, 10.023047) rotate(-180.000000) translate(-34.701172, -10.023047) "></path>
                <path d="M15.306875,12.1584375 L12.1990625,9.05203125 L9.09125,5.94421875 L8.95625,5.8078125 L13.90625,0.8578125 L-0.31234375,0.42609375 L0.119375,14.6432812 L5.07078125,9.69328125 L5.2071875,9.82828125 L8.31359375,12.9360937 L11.4214062,16.0439063 L14.5278125,19.1517187 L14.9989062,19.62 L18.8829687,15.7359375 L18.4146875,15.26625 L15.306875,12.1584375 Z" id="Shape" transform="translate(9.285312, 10.023047) rotate(-180.000000) translate(-9.285312, -10.023047) "></path>
                <path d="M38.9164063,35.769375 L38.78,35.634375 L35.6721875,32.5265625 L32.564375,29.41875 L29.4565625,26.3095312 L28.986875,25.84125 L25.1042187,29.7267187 L25.5725,30.195 L28.6789063,33.3028125 L31.7867188,36.410625 L34.8945312,39.5184375 L35.0309375,39.6534375 L30.0795312,44.6048438 L44.298125,45.0351562 L43.8664062,30.819375 L38.9164063,35.769375 Z" id="Shape" transform="translate(34.701172, 35.438203) rotate(-180.000000) translate(-34.701172, -35.438203) "></path>
                <path d="M14.5278125,26.3095312 L11.4214062,29.41875 L8.31359375,32.5265625 L5.2071875,35.634375 L5.07078125,35.7707812 L0.119375,30.819375 L-0.31234375,45.0351562 L13.90625,44.6048438 L8.95484375,39.6534375 L9.09125,39.5184375 L12.1990625,36.410625 L15.306875,33.3028125 L18.4146875,30.195 L18.8829687,29.7267187 L14.9989062,25.84125 L14.5278125,26.3095312 Z" id="Shape" transform="translate(9.285312, 35.438203) rotate(-180.000000) translate(-9.285312, -35.438203) "></path>
            </g>
        </g>
    </g>
</svg>